<svg version="1.1" id="Layer_1" xmlns="http://www.w3.org/2000/svg" x="0" y="0" viewBox="0 0 512.002 512.002" style="enable-background:new 0 0 512.002 512.002" xml:space="preserve"><path d="m509.955 386.866-39.524-72.29a16.678 16.678 0 0 0-16.306-8.596l-64.9 6.525c.002-.351.013-.701.013-1.053 0-14.646-2.379-28.745-6.758-41.94l67.024-40.431 31.168 57.015c3.032 5.544 8.75 8.683 14.653 8.683 2.705 0 5.446-.659 7.987-2.047 8.084-4.42 11.055-14.555 6.636-22.639l-39.518-72.288a16.694 16.694 0 0 0-10.287-8.103 16.69 16.69 0 0 0-12.967 1.821l-79.181 47.763a134.526 134.526 0 0 0-25.693-29.357l91.956-92.45c6.469-6.505 6.473-17.012.008-23.52l-88.375-88.97c-6.495-6.536-17.055-6.572-23.593-.079-6.536 6.493-6.572 17.054-.078 23.591l76.69 77.206-85.114 85.572a132.789 132.789 0 0 0-7.354-3.285c10.006-11.673 16.071-26.817 16.071-43.361 0-36.793-29.934-66.727-66.727-66.727-36.793 0-66.727 29.934-66.727 66.727 0 16.543 6.065 31.688 16.071 43.361a133.5 133.5 0 0 0-7.068 3.145l-84.975-85.432 76.69-77.206c6.494-6.536 6.458-17.099-.078-23.591-6.538-6.493-17.099-6.458-23.593.079l-88.375 88.97c-6.465 6.508-6.463 17.016.008 23.52l91.761 92.254a134.498 134.498 0 0 0-25.803 29.369l-78.877-47.58a16.685 16.685 0 0 0-12.967-1.821 16.685 16.685 0 0 0-10.287 8.103L2.048 270.092c-4.42 8.084-1.448 18.22 6.636 22.64a16.602 16.602 0 0 0 7.987 2.047c5.902 0 11.622-3.14 14.653-8.683l31.168-57.015 66.668 40.217c-4.425 13.257-6.827 27.429-6.827 42.155 0 .338.01.673.012 1.011l-64.473-6.481a16.685 16.685 0 0 0-16.306 8.596L2.049 386.865c-4.42 8.084-1.448 18.22 6.636 22.639a16.602 16.602 0 0 0 7.987 2.047c5.902 0 11.622-3.14 14.653-8.683l34.214-62.586 61.465 6.18a132.955 132.955 0 0 0 20.234 42.534l-59.951 29.862a16.682 16.682 0 0 0-9.245 14.932v61.467c0 9.213 7.469 16.682 16.682 16.682s16.682-7.469 16.682-16.682v-51.14L171 414.434c23.071 19.028 52.619 30.472 84.789 30.472 32.238 0 61.842-11.492 84.934-30.591l59.834 29.803v51.14c0 9.213 7.469 16.682 16.682 16.682s16.682-7.469 16.682-16.682V433.79a16.682 16.682 0 0 0-9.245-14.932l-60.234-30.002a132.974 132.974 0 0 0 20.119-42.35l61.902-6.223 34.214 62.586c3.032 5.544 8.75 8.683 14.653 8.683 2.705 0 5.446-.659 7.987-2.047 8.086-4.419 11.056-14.555 6.638-22.639zm-206.988-28.232c-12.587 12.588-29.344 19.521-47.183 19.521s-34.595-6.933-47.184-19.521c-6.515-6.515-6.515-17.077 0-23.591 6.514-6.515 17.077-6.515 23.591 0 6.287 6.287 14.667 9.75 23.593 9.75s17.305-3.462 23.591-9.749c6.514-6.515 17.077-6.515 23.591 0 6.516 6.514 6.516 17.076.001 23.59z"/></svg>