<?xml version="1.0" encoding="iso-8859-1"?>
<svg version="1.1" id="Layer_1" xmlns="http://www.w3.org/2000/svg" xmlns:xlink="http://www.w3.org/1999/xlink" x="0px" y="0px"
     viewBox="0 0 512.002 512.002" style="enable-background:new 0 0 512.002 512.002;" xml:space="preserve">
  <g>
    <g>
      <path d="M509.955,386.866l-39.524-72.29c-3.215-5.88-9.64-9.271-16.306-8.596l-64.9,6.525c0.002-0.351,0.013-0.701,0.013-1.053
        c0-14.646-2.379-28.745-6.758-41.94l67.024-40.431l31.168,57.015c3.032,5.544,8.75,8.683,14.653,8.683
        c2.705,0,5.446-0.659,7.987-2.047c8.084-4.42,11.055-14.555,6.636-22.639l-39.518-72.288c-2.182-3.989-5.898-6.916-10.287-8.103
        c-4.387-1.184-9.073-0.528-12.967,1.821l-79.181,47.763c-7.099-10.999-15.771-20.889-25.693-29.357l91.956-92.45
        c6.469-6.505,6.473-17.012,0.008-23.52l-88.375-88.97c-6.495-6.536-17.055-6.572-23.593-0.079
        c-6.536,6.493-6.572,17.054-0.078,23.591l76.69,77.206l-85.114,85.572c-2.411-1.169-4.866-2.26-7.354-3.285
        c10.006-11.673,16.071-26.817,16.071-43.361c0-36.793-29.934-66.727-66.727-66.727c-36.793,0-66.727,29.934-66.727,66.727
        c0,16.543,6.065,31.688,16.071,43.361c-2.39,0.984-4.749,2.029-7.068,3.145l-84.975-85.432l76.69-77.206
        c6.494-6.536,6.458-17.099-0.078-23.591c-6.538-6.493-17.099-6.458-23.593,0.079l-88.375,88.97
        c-6.465,6.508-6.463,17.016,0.008,23.52l91.761,92.254c-9.962,8.464-18.673,18.359-25.803,29.369l-78.877-47.58
        c-3.894-2.349-8.578-3.006-12.967-1.821c-4.39,1.186-8.105,4.113-10.287,8.103L2.048,270.092c-4.42,8.084-1.448,18.22,6.636,22.64
        c2.54,1.389,5.283,2.047,7.987,2.047c5.902,0,11.622-3.14,14.653-8.683l31.168-57.015l66.668,40.217
        c-4.425,13.257-6.827,27.429-6.827,42.155c0,0.338,0.01,0.673,0.012,1.011l-64.473-6.481c-6.665-0.671-13.091,2.716-16.306,8.596
        L2.049,386.865c-4.42,8.084-1.448,18.22,6.636,22.639c2.54,1.389,5.283,2.047,7.987,2.047c5.902,0,11.622-3.14,14.653-8.683
        l34.214-62.586l61.465,6.18c4.209,15.47,11.133,29.831,20.234,42.534l-59.951,29.862c-5.664,2.821-9.245,8.604-9.245,14.932
        v61.467c0,9.213,7.469,16.682,16.682,16.682s16.682-7.469,16.682-16.682v-51.14L171,414.434
        c23.071,19.028,52.619,30.472,84.789,30.472c32.238,0,61.842-11.492,84.934-30.591l59.834,29.803v51.14
        c0,9.213,7.469,16.682,16.682,16.682s16.682-7.469,16.682-16.682V433.79c0-6.328-3.581-12.111-9.245-14.932l-60.234-30.002
        c9.043-12.657,15.924-26.955,20.119-42.35l61.902-6.223l34.214,62.586c3.032,5.544,8.75,8.683,14.653,8.683
        c2.705,0,5.446-0.659,7.987-2.047C511.403,405.086,514.373,394.95,509.955,386.866z M302.967,358.634
        c-12.587,12.588-29.344,19.521-47.183,19.521s-34.595-6.933-47.184-19.521c-6.515-6.515-6.515-17.077,0-23.591
        c6.514-6.515,17.077-6.515,23.591,0c6.287,6.287,14.667,9.75,23.593,9.75s17.305-3.462,23.591-9.749
        c6.514-6.515,17.077-6.515,23.591,0C309.482,341.558,309.482,352.12,302.967,358.634z"/>
    </g>
  </g>
</svg>
